<svg viewBox="0 0 263.3 300.02" xmlns="http://www.w3.org/2000/svg" fill="000000"><path d="m179 133.81a58.41 58.41 0 0 1 -3 18.38 54.33 54.33 0 0 1 -3.81 8.73 49.13 49.13 0 0 1 -5.49 8 43.59 43.59 0 0 1 -15.7 11.7 44.06 44.06 0 0 1 -19.37 3.63 46.83 46.83 0 0 1 -18.85-4.9 55.19 55.19 0 0 1 -28.94-36 53 53 0 0 1 -1.44-9.51 47.28 47.28 0 0 1 13.26-36 50.09 50.09 0 0 1 16.34-11.4 48.35 48.35 0 0 1 39.13.29 45 45 0 0 1 15.67 11.93 51 51 0 0 1 9.28 16.75 57.43 57.43 0 0 1 2.92 18.4zm-.82 0a39.53 39.53 0 0 0 -4.18-17.55 43.06 43.06 0 0 0 -11.1-13.73 50.75 50.75 0 0 0 -14.84-8.45 46.08 46.08 0 0 0 -16.45-2.86 46.61 46.61 0 0 0 -16.34 3.15 44.08 44.08 0 0 0 -14.13 9 45.91 45.91 0 0 0 -9.89 13.76c-.29.65-.61 1.3-.88 2s-.54 1.33-.78 2-.49 1.35-.7 2-.43 1.38-.61 2.08a45.2 45.2 0 0 0 -1.4 8.62 41.56 41.56 0 0 0 2.6 17.45 40.63 40.63 0 0 0 9.85 14.84 40.21 40.21 0 0 0 15.17 9 47.68 47.68 0 0 0 17.11 2.24 53.08 53.08 0 0 0 31.39-12.18 43.41 43.41 0 0 0 11.1-13.78 39.24 39.24 0 0 0 4.12-17.59z"></path><path d="m225.87.56a167.5 167.5 0 0 1 -44.62 22.44 171.42 171.42 0 0 1 -24.45 6 174.94 174.94 0 0 1 -25.15 2.29h-6.33l-6.33-.2c-2.11-.12-4.22-.28-6.33-.41s-4.21-.42-6.32-.63a130.45 130.45 0 0 1 -24.78-5.48c-2-.66-4-1.42-6-2.13s-3.92-1.44-5.88-2.27-3.84-1.76-5.76-2.64-3.77-1.91-5.63-2.88a122.34 122.34 0 0 1 -20.86-14.09l.37-.56c7.43 3.79 14.89 7.3 22.5 10.37l5.7 2.21c1.93.68 3.84 1.41 5.78 2.05s3.87 1.31 5.82 1.89 3.9 1.18 5.87 1.69q11.77 3.24 23.81 5.33c2 .32 4 .67 6 .95s4 .52 6.08.73l6.1.48 6.13.26a170.15 170.15 0 0 0 24.5-1.34 167.24 167.24 0 0 0 24.13-4.8 168.15 168.15 0 0 0 23.28-8.25c1.89-.83 3.75-1.73 5.63-2.6s3.68-1.87 5.53-2.8l5.44-3 5.4-3.17z"></path><path d="m263.3 212.62a170.4 170.4 0 0 1 -58.25 47.15 172.18 172.18 0 0 1 -73.4 17.49 178.25 178.25 0 0 1 -38-3.57 150.23 150.23 0 0 1 -36.15-12.4c-1.46-.64-2.82-1.47-4.24-2.22l-4.2-2.28-1.06-.57-1-.63-2-1.25-4.06-2.52c-.34-.21-.68-.42-1-.64l-1-.69-1.94-1.38-3.89-2.75c-2.56-1.89-5-3.94-7.47-5.92a146.27 146.27 0 0 1 -25.64-27.82l.52-.42a207.53 207.53 0 0 0 28 24.51l3.82 2.62c1.28.86 2.5 1.81 3.82 2.61l3.92 2.44 2 1.22 1 .61c.33.2.67.38 1 .56l4 2.25 2 1.13 1 .56 1 .51 4.13 2c1.39.66 2.73 1.41 4.16 2a195.21 195.21 0 0 0 34.72 12l4.49 1 2.25.5 1.13.25 1.13.19 4.55.74 2.28.38c.75.12 1.51.26 2.28.32 3.06.29 6.11.64 9.18.9l9.23.41a167.92 167.92 0 0 0 72-15.14 168.94 168.94 0 0 0 32-19c2.47-1.89 4.86-3.88 7.29-5.82s4.65-4.15 7-6.22 4.43-4.39 6.65-6.58l6.28-6.95z"></path><path d="m179 155.07a58.5 58.5 0 0 1 -3 18.38 54.61 54.61 0 0 1 -3.81 8.72 48.7 48.7 0 0 1 -5.49 8 43.47 43.47 0 0 1 -15.7 11.7 44.21 44.21 0 0 1 -19.37 3.64 46.84 46.84 0 0 1 -18.85-4.91 55.13 55.13 0 0 1 -28.94-36 53 53 0 0 1 -1.44-9.5 47.28 47.28 0 0 1 13.26-36 50.39 50.39 0 0 1 16.34-11.41 48.35 48.35 0 0 1 39.13.29 44.88 44.88 0 0 1 15.65 11.94 51.08 51.08 0 0 1 9.28 16.74 57.54 57.54 0 0 1 2.94 18.41zm-.82 0a39.54 39.54 0 0 0 -4.18-17.56 43.06 43.06 0 0 0 -11.1-13.73 50.72 50.72 0 0 0 -14.84-8.44 45.86 45.86 0 0 0 -16.45-2.86 46.38 46.38 0 0 0 -16.34 3.15 44.05 44.05 0 0 0 -14.13 9 45.91 45.91 0 0 0 -9.89 13.76c-.29.65-.61 1.3-.88 2s-.54 1.33-.78 2-.49 1.35-.7 2-.43 1.38-.61 2.09a45.2 45.2 0 0 0 -1.4 8.62 41.61 41.61 0 0 0 2.6 17.45 40.67 40.67 0 0 0 9.85 14.83 40.21 40.21 0 0 0 15.17 9 47.46 47.46 0 0 0 17.11 2.24 53.08 53.08 0 0 0 31.39-12.19 43.41 43.41 0 0 0 11.08-13.78 39.2 39.2 0 0 0 4.14-17.58z"></path><path d="m157 174.71a58.5 58.5 0 0 1 -3 18.38 54.61 54.61 0 0 1 -3.81 8.72 48.7 48.7 0 0 1 -5.49 8 43.59 43.59 0 0 1 -15.7 11.7 44.06 44.06 0 0 1 -19.37 3.63 46.83 46.83 0 0 1 -18.85-4.9 55.13 55.13 0 0 1 -28.94-36 53 53 0 0 1 -1.44-9.5 47.28 47.28 0 0 1 13.26-36 50.39 50.39 0 0 1 16.34-11.41 48.35 48.35 0 0 1 39.13.29 44.88 44.88 0 0 1 15.65 11.94 51 51 0 0 1 9.22 16.74 57.54 57.54 0 0 1 3 18.41zm-.82 0a39.55 39.55 0 0 0 -4.18-17.56 42.9 42.9 0 0 0 -11.09-13.73 50.72 50.72 0 0 0 -14.85-8.42 45.65 45.65 0 0 0 -16.45-2.86 46.37 46.37 0 0 0 -16.34 3.14 44.08 44.08 0 0 0 -14.13 9 45.91 45.91 0 0 0 -9.89 13.72c-.29.65-.61 1.3-.88 2s-.54 1.33-.78 2-.49 1.35-.7 2-.43 1.38-.61 2.08a45.3 45.3 0 0 0 -1.4 8.63 41.61 41.61 0 0 0 2.6 17.45 40.67 40.67 0 0 0 9.85 14.84 40.21 40.21 0 0 0 15.17 9 47.68 47.68 0 0 0 17.11 2.24 53.08 53.08 0 0 0 31.39-12.17 43.41 43.41 0 0 0 11.08-13.78 39.2 39.2 0 0 0 4.1-17.58z"></path><path d="m201.08 174.71a58.5 58.5 0 0 1 -3 18.38 54.61 54.61 0 0 1 -3.81 8.72 48.7 48.7 0 0 1 -5.49 8 43.64 43.64 0 0 1 -15.69 11.7 44.13 44.13 0 0 1 -19.38 3.63 46.83 46.83 0 0 1 -18.85-4.9 55.13 55.13 0 0 1 -28.94-36 53 53 0 0 1 -1.44-9.5 47.28 47.28 0 0 1 13.26-36 50.33 50.33 0 0 1 16.35-11.41 48.33 48.33 0 0 1 39.12.29 44.88 44.88 0 0 1 15.65 11.94 51 51 0 0 1 9.28 16.74 57.26 57.26 0 0 1 2.94 18.41zm-.82 0a39.54 39.54 0 0 0 -4.18-17.56 42.92 42.92 0 0 0 -11.08-13.73 50.8 50.8 0 0 0 -14.85-8.42 45.74 45.74 0 0 0 -16.46-2.86 46.37 46.37 0 0 0 -16.34 3.14 44.08 44.08 0 0 0 -14.13 9 46.08 46.08 0 0 0 -9.89 13.72c-.29.65-.61 1.3-.88 2s-.54 1.33-.77 2-.5 1.35-.71 2-.43 1.38-.61 2.08a45.3 45.3 0 0 0 -1.4 8.63 41.61 41.61 0 0 0 2.6 17.45 40.67 40.67 0 0 0 9.85 14.84 40.21 40.21 0 0 0 15.17 9 47.68 47.68 0 0 0 17.11 2.24 53.08 53.08 0 0 0 31.37-12.19 43.41 43.41 0 0 0 11.08-13.78 39.07 39.07 0 0 0 4.12-17.56z"></path><path d="m132 3.75.37 17.47.33 17.46.64 34.93 1 69.85.29 17.47.35 17.46q.32 17.48 0 34.93l-.39 17.46c-.2 5.83-.34 11.65-.61 17.47-.46 11.64-1.06 23.28-2 34.93h-.68c-1-11.65-1.56-23.29-2-34.93-.26-5.82-.4-11.64-.6-17.47l-.39-17.46q-.3-17.46 0-34.93l.35-17.46.29-17.47 1-69.85.64-34.93.33-17.46.37-17.47z"></path><path d="m94.22 93.75q15.78 15.25 31.15 30.77c5.12 5.19 10.2 10.44 15.35 15.61s10.33 10.31 15.53 15.42c10.4 10.24 20.8 20.49 31.09 30.83 5.17 5.16 10.28 10.36 15.4 15.57s10.24 10.39 15.31 15.64h-.05q-7.87-7.6-15.65-15.31c-5.2-5.12-10.4-10.23-15.56-15.4-10.34-10.29-20.59-20.69-30.83-31.09-5.11-5.2-10.24-10.4-15.42-15.53s-10.42-10.18-15.61-15.26q-15.54-15.42-30.77-31.15z"></path><path d="m67.91 120.06q15.75 15.21 31.15 30.76c5.13 5.2 10.2 10.44 15.36 15.61s10.33 10.31 15.53 15.43q15.6 15.34 31.09 30.83c5.16 5.15 10.28 10.36 15.39 15.56s10.25 10.39 15.32 15.64l-.05.05q-7.87-7.6-15.65-15.31c-5.2-5.12-10.41-10.23-15.56-15.4q-15.49-15.43-30.83-31.09c-5.12-5.2-10.24-10.39-15.43-15.53s-10.41-10.22-15.6-15.35q-15.54-15.42-30.77-31.15z"></path><path d="m42.58 147.33q15.75 15.21 31.15 30.77c5.13 5.19 10.2 10.44 15.36 15.6s10.33 10.3 15.53 15.43q15.6 15.36 31.09 30.83c5.16 5.15 10.28 10.36 15.39 15.56s10.25 10.4 15.32 15.65v.05q-7.87-7.61-15.65-15.32c-5.2-5.11-10.41-10.23-15.56-15.39q-15.51-15.45-30.83-31.09c-5.12-5.2-10.24-10.4-15.43-15.53s-10.41-10.23-15.6-15.36q-15.54-15.42-30.77-31.15z"></path><path d="m18.78 176.13q15.75 15.21 31.15 30.77c5.13 5.19 10.2 10.44 15.36 15.61s10.33 10.31 15.53 15.42q15.6 15.36 31.08 30.83 7.75 7.74 15.4 15.57t15.32 15.67h-.06q-7.86-7.61-15.64-15.31c-5.2-5.12-10.41-10.23-15.56-15.4-10.36-10.29-20.59-20.67-30.83-31.07-5.12-5.2-10.24-10.4-15.43-15.53s-10.41-10.23-15.6-15.35q-15.5-15.42-30.77-31.15z"></path><path d="m120.52 67.45q15.75 15.21 31.15 30.77c5.13 5.19 10.2 10.44 15.35 15.6s10.33 10.31 15.53 15.43c10.4 10.24 20.8 20.49 31.09 30.83 5.17 5.16 10.28 10.36 15.4 15.56s10.24 10.4 15.31 15.65v.05q-7.87-7.6-15.64-15.31t-15.56-15.4q-15.53-15.45-30.84-31.09c-5.11-5.2-10.23-10.4-15.42-15.53s-10.42-10.23-15.61-15.35q-15.59-15.42-30.82-31.16z"></path><path d="m38.49 224.34q15.67-16.2 31.68-32.06c5.34-5.28 10.74-10.5 16.06-15.8s10.61-10.64 15.88-16q15.81-16.05 31.74-32c5.3-5.31 10.66-10.58 16-15.85s10.71-10.53 16.15-15.76l.06.06q-7.89 8.07-15.81 16.07t-15.85 16q-15.9 16-32 31.74c-5.35 5.27-10.7 10.54-16 15.88s-10.52 10.72-15.8 16.06q-15.88 16-32.06 31.68z"></path><path d="m64.8 250.64q15.66-16.2 31.67-32c5.35-5.28 10.74-10.51 16.06-15.81s10.61-10.63 15.88-16c10.54-10.7 21.09-21.4 31.74-32q8-8 16-15.86t16.1-15.76c-5.22 5.4-10.5 10.75-15.77 16.1s-10.48 10.69-15.78 16.03q-15.9 16-32 31.74c-5.35 5.27-10.7 10.54-16 15.88s-10.51 10.72-15.79 16.04q-15.91 16-32.06 31.7z"></path><path d="m92.07 276q15.68-16.2 31.68-32.05c5.34-5.28 10.74-10.51 16.06-15.81s10.61-10.63 15.88-16c10.54-10.7 21.09-21.4 31.74-32 5.3-5.32 10.66-10.59 16-15.86s10.7-10.54 16.1-15.76l.05.05q-7.83 8.1-15.77 16.1c-5.26 5.35-10.53 10.71-15.85 16-10.59 10.65-21.29 21.2-32 31.74-5.36 5.27-10.71 10.54-16 15.88s-10.5 10.71-15.78 16.06q-15.87 16-32.06 31.68z"></path><path d="m120.87 299.78q15.3-15.82 30.93-31.31c5.22-5.15 10.49-10.25 15.68-15.43s10.36-10.38 15.51-15.61c10.29-10.45 20.58-20.9 31-31.24 5.18-5.2 10.41-10.34 15.64-15.48s10.45-10.3 15.72-15.39l.06.05c-5.1 5.28-10.25 10.5-15.4 15.72s-10.28 10.46-15.47 15.64q-15.53 15.6-31.25 31c-5.22 5.14-10.45 10.29-15.61 15.5s-10.27 10.47-15.43 15.69q-15.49 15.61-31.3 30.92z"></path><path d="m17 193.26q15-15.6 30.45-30.86c5.15-5.08 10.35-10.11 15.47-15.21s10.21-10.19 15.28-15.39q15.21-15.47 30.54-30.8c5.11-5.12 10.27-10.19 15.42-15.26s10.3-10.15 15.5-15.17l.05.05q-7.53 7.81-15.17 15.5c-5.07 5.16-10.13 10.32-15.25 15.42q-15.29 15.38-30.8 30.55c-5.16 5.07-10.31 10.14-15.39 15.28s-10.1 10.32-15.21 15.46q-15.27 15.41-30.89 30.48z"></path><circle cx="131.65" cy="28.65" r="8.24"></circle></svg>