<svg viewBox="0 0 1073 1030.08" xmlns="http://www.w3.org/2000/svg" fill="000000"><path d="m1053.7 14.58c-21.1-22.2-86.7 10-183.3 47.8s-198.8 121.1-198.8 121.1-56.7-17.7-118.9-17.7-116.6 12.22-116.6 12.22a571.93 571.93 0 0 1 -69.9-44.5c-37.7-27.8-207.8-96.6-264.3-102.1-56.7-5.5-53.3 21.1-55.6 33.3s13.4 36.7 75.5 97.8 188.8 151.1 188.8 151.1-4.5 12.2-11.1 37.7-10 36.7-10 36.7-245.5-215.72-246.6-211.22-31.1 324.4-31.1 324.4l226.6 104.4-77.8 69.9 116.6 65.6-47.8 51.1 33.3 30s-26.7 105.5-17.7 184.4a179.06 179.06 0 0 0 4.22 23.5h616.29c15.43-34.41 6.64-85.84-.91-144.6-7.7-59.9-34.5-167.7-43.3-199.9s-16.6-87.8-16.6-87.8a127 127 0 0 1 10-25.6c6.6-12.2 18.9-48.8 23.4-84.4 0 0 0-47.8-10-92.2s-24.5-93.3-24.5-93.3 11.1-4.5 59.9-40 117.8-105.5 163.3-150c45.9-44.4 48-75.5 26.9-97.7zm-349.2 298.2c19.1-11.1 46.5.2 61.1 25.5s11.1 54.6-8 65.7-46.5-.2-61.1-25.5c-14.6-25.1-11-54.48 8-65.7zm-124.5 76.8c16.6 0 25.8 4.1 28.3 8.4 2.5 4.1-14.1 27.5-25.8 26.2s-32.6-17.18-32.5-26.18c.1-7.92 13.4-8.42 30-8.42zm-204.2-51.5c16-23.6 44.1-32.5 62.7-19.9s20.7 42 4.7 65.7-44.1 32.5-62.7 19.9-20.7-42.1-4.7-65.7zm-85.2 173.1c0-33.7 17.6-61.1 39.5-61.1s39.5 27.3 39.5 61.1-17.6 61.1-39.5 61.1-39.5-27.4-39.5-61.1zm202.9 332-18.5 3.9-3.1 22.2-14.4 3.1-6.2 11.62-135.9-92.3 131.7 78.4 18.6-8.6 2.7-24.5 14.1-3-2.5-22.2 22-13.9-86.4-120 99.8 124-24.6 17.9zm19.4-367.8c-26.2-4.2-31.7-24.2-31.7-24.2s11.6 13.4 27.5 11.6c15.9-1.6 46.1-17 58.3-20.9 6.6-2.1 20.4-2.1 30 3.4 14.1 8 31.7 19.6 46.7 17.5s36.7-15 36.7-15-8.4 29.2-36.2 27.5-49.7-20.9-64.8-20.4-54.4 22.5-66.5 20.5zm296.4 291.3-113.2 118.9-8.6-10h-14.7l-7.8-21.1h-18.9l-2.2-23.4-27.7-12.2 71.4-142.2-59.2 135.5 24.5 8.9 2.2 22.2h14.5l7.7 23.4 20 4.5zm16.8-268.3c0 35.8-17.9 64.9-40 64.9s-40-29.1-40-64.9 17.9-64.9 40-64.9 40 29 40 64.9z"></path></svg>